<svg width="821" height="242" viewBox="0 0 821 242" fill="none" xmlns="http://www.w3.org/2000/svg">
<path d="M72.6999 182.2V176.5C66.1999 182.7 57.0999 185.8 45.2999 185.8C32.4999 185.8 21.7999 181.1 13.4999 171.8C5.0999 162.5 0.899902 151.1 0.899902 137.9C0.899902 124.7 5.0999 113.4 13.4999 104.1C21.8999 94.7996 32.4999 90.0996 45.2999 90.0996C57.0999 90.0996 66.2999 93.1996 72.6999 99.3996V92.7996H95.1999V182.2H72.6999V182.2ZM72.5999 138.2C72.5999 130.9 70.1999 124.6 65.3999 119.4C60.5999 114.2 54.7999 111.6 47.9999 111.6C41.1999 111.6 35.3999 114.2 30.4999 119.4C25.6999 124.6 23.2999 130.8 23.2999 138.2C23.2999 145.5 25.6999 151.7 30.4999 156.8C35.2999 162 41.0999 164.5 47.9999 164.5C54.8999 164.5 60.5999 161.9 65.3999 156.8C70.1999 151.7 72.5999 145.5 72.5999 138.2Z" fill="#4C9DD7"/>
<path d="M139.2 181.8H116.3V56.1997H139.2V181.8Z" fill="#4C9DD7"/>
<path d="M188.1 69.1997V92.9997H202.9V111.5H188.1V156C188.1 157.5 188.4 158.8 188.8 159.8C189.3 160.8 189.9 161.7 190.6 162.3C191.6 163.1 192.8 163.6 194.2 163.7C195.6 163.8 196.9 163.8 198.2 163.6C199.5 163.4 201.1 162.9 202.8 162.3V184.6C199.1 185.4 195.9 185.8 193.1 186C190.3 186.1 187.3 185.9 184.1 185.2C180.9 184.6 177.9 183.3 175 181.4C172.1 179.5 169.8 176.7 168 173C166.2 169.3 165.2 164.3 165.2 158.2V111.6H155.5V92.9997H165.2V71.9997L188.1 69.1997Z" fill="#4C9DD7"/>
<path d="M238.9 145.6C239.8 150.5 242.5 154.7 247 158.2C251.5 161.7 258.8 163.5 268.8 163.5C278.2 163.5 286.5 161.4 293.6 157.2V180.7C285.7 185.1 273.8 186.6 257.8 185.4C246 184 236.1 178.7 228.1 169.6C220.1 160.5 216.1 149.8 216.1 137.7C216.1 124.5 220.5 113.3 229.4 103.9C238.3 94.5999 248.9 89.8999 261.4 89.8999C272.2 89.8999 280.4 92.3999 285.9 97.3999C291.4 102.4 295.1 108.3 297.1 115C299.1 121.8 300.1 128 300.1 133.8C300.1 139.6 300 143.5 299.6 145.6H238.9ZM278.4 126.5C278.4 121.3 276.8 117.2 273.7 114.2C270.5 111.2 265.9 109.7 259.7 109.7C254.2 109.7 249.1 111.9 244.5 116.2C241.4 119.1 239.4 122.5 238.4 126.4L278.4 126.5Z" fill="#4C9DD7"/>
<path d="M365.5 89.6997C367.2 89.6997 368.9 89.7997 370.4 89.9997V111.7C367.5 111.3 364.9 111.2 362.6 111.3C360.3 111.4 357.9 111.8 355.4 112.6C352.9 113.3 350.4 114.6 348.1 116.5C345.8 118.3 343.9 120.9 342.5 124.2C341 127.5 340.3 131.7 340.3 136.8V181.8H317.4V92.7997H340.3V103.8C346.4 94.3997 354.7 89.6997 365.5 89.6997Z" fill="#4C9DD7"/>
<path d="M490.4 100.3C485.8 95.0999 480.8 90.2999 476.3 85.0999C472.9 81.1999 471.6 76.4999 472.4 71.0999C473.3 64.5999 474.6 58.0999 472.9 51.4999C466.8 27.0999 455.4 12.1999 433.2 1.09994C432.8 0.899944 430.1 -0.500055 429.4 0.299945C428.5 1.29995 429.7 3.39995 430 4.29995C434.7 15.1999 436.1 23.4999 433.5 35.3999C432.2 41.3999 431.9 47.4999 435.8 52.8999C437.5 55.1999 439.2 57.5999 441.1 59.6999C445.6 64.4999 450.4 68.9999 455 73.7999C459.3 78.3999 458.9 83.6999 454 87.6999C452.2 89.1999 450.2 90.4999 448.4 91.9999C443.1 96.3999 442.3 99.5999 444.9 106C446.2 109.3 445.8 112.1 443.1 114.3C442.8 114.6 442.5 114.8 442.2 115C440.8 116.1 440.7 118.1 442 119.4C445 122.3 444.4 125.4 440.7 128.4C440.5 128.5 440.3 128.7 440.1 128.8C438.3 129.8 438.2 131.3 438.9 133.1C440.3 136.6 441.5 140.1 442.9 143.6C446 151.3 443.8 157.1 436.1 160.5C434.7 161.1 433.2 161.6 431.8 162C426.9 163.3 421.8 163.4 416.7 162.9C413.7 162.6 410.8 162.5 408 162.6C398.1 162.9 388.9 166 381.1 173.4C380.4 174.1 379.7 174.8 379 175.5C373.7 181.2 370.3 187.9 367.9 195.2C367.3 197 366.7 198.9 366.2 200.8C365.6 202.9 365.2 205.1 364.8 207.3C363.7 213.7 362.2 220.2 362.2 226.6C362.2 233.5 367.1 239.6 373.9 241C377 241.6 380.4 241.8 383.5 241.9C384.3 241.9 385.1 242 386 242C387 242 388 242 389 241.9C396.3 241.5 403 239.4 409 235.7C409.9 235.2 410.7 234.6 411.5 234.1C412.2 233.6 412.6 232.8 412.7 231.9C413 223.3 413.5 214.7 416 206.3C418.9 196.5 424.2 188.1 431.7 182.5C439 177.1 448.5 174.5 460 176C465.5 176.8 471.1 176.2 476.3 173.7C481.5 171.2 483.2 166.9 481.2 161.6C479.9 158.2 478.5 154.9 477.5 151.4C477.2 150.3 477.6 148.3 478.4 147.6C482 144.3 482.7 142.6 479.9 140.5C478.5 139.5 478.4 137.3 479.8 136.2C482.5 134 483.7 131.7 482.6 128.5C481 123.7 482.4 118.5 486.4 115.4C487.9 114.3 489.3 113.2 490.5 111.8C491.9 110.2 493.3 107.8 493.3 105.8C493.5 104 491.9 101.9 490.4 100.3Z" fill="#667B97"/>
<path d="M544.1 145C545 149.9 547.7 154.1 552.2 157.6C556.7 161.1 564 162.9 574 162.9C583.4 162.9 591.7 160.8 598.8 156.6V180.1C590.9 184.5 579 186 563 184.8C551.2 183.4 541.3 178.1 533.3 169C525.3 159.9 521.3 149.2 521.3 137.1C521.3 123.9 525.7 112.7 534.6 103.3C543.5 93.9998 554.1 89.2998 566.6 89.2998C577.4 89.2998 585.6 91.7998 591.1 96.7998C596.6 101.8 600.3 107.7 602.3 114.4C604.3 121.2 605.3 127.4 605.3 133.2C605.3 139 605.2 142.9 604.8 145H544.1ZM583.6 126C583.6 120.8 582 116.7 578.9 113.7C575.7 110.7 571.1 109.2 564.9 109.2C559.4 109.2 554.3 111.4 549.7 115.7C546.6 118.6 544.6 122 543.6 125.9L583.6 126Z" fill="#667B97"/>
<path d="M689.3 92.2999H711V181.7C711 190.3 709 198.1 704.8 205.1C700.7 212.1 695.2 217.8 688.3 222C681.4 226.2 673.7 228.3 665.3 228.3C657.2 228.3 649.7 226.2 642.7 222.1C635.7 218 630 212.3 625.8 205.1L644.4 193.3C646.6 197.1 649.5 200 653.2 202.2C656.9 204.4 660.9 205.4 665.2 205.4C669.6 205.4 673.6 204.3 677.3 202.2C680.9 200.1 683.8 197.2 686 193.6C688.2 190 689.2 186 689.2 181.7V174.5C686.7 178.2 683.4 180.9 679.2 182.7C675 184.5 670.5 185.4 665.5 185.4C656.9 185.4 649 183.2 641.9 178.9C634.8 174.6 629.1 168.8 624.9 161.5C620.7 154.2 618.6 146.2 618.6 137.4C618.6 128.6 620.7 120.5 624.9 113.3C629.1 106 634.8 100.2 641.9 95.8999C649 91.5999 656.9 89.3999 665.5 89.3999C670 89.3999 673.8 89.7999 676.8 90.6999C679.8 91.4999 682.3 92.4999 684.1 93.5999C685.9 94.6999 687.6 96.0999 689.2 97.7999L689.3 92.2999ZM665.7 163C670.2 163 674.2 161.8 677.8 159.5C681.4 157.2 684.3 154.1 686.5 150.2C688.7 146.3 689.8 142 689.8 137.2C689.8 132.5 688.7 128.1 686.5 124.2C684.3 120.3 681.4 117.2 677.8 114.8C674.2 112.5 670.1 111.3 665.7 111.3C661.3 111.3 657.2 112.5 653.6 114.8C650 117.1 647.1 120.2 644.9 124.2C642.7 128.1 641.7 132.5 641.7 137.2C641.7 142 642.8 146.3 644.9 150.2C647.1 154.1 650 157.2 653.6 159.5C657.2 161.9 661.2 163 665.7 163Z" fill="#667B97"/>
<path d="M774.4 89.2998C782.9 89.2998 790.7 91.4998 797.8 95.7998C804.9 100.1 810.5 105.9 814.7 113.2C818.9 120.5 821 128.5 821 137.3C821 146.2 818.9 154.2 814.7 161.5C810.5 168.8 804.9 174.6 797.8 178.9C790.7 183.2 782.9 185.4 774.4 185.4C765.8 185.4 758 183.2 750.9 178.9C743.8 174.6 738.2 168.8 734 161.5C729.8 154.2 727.7 146.2 727.7 137.3C727.7 128.5 729.8 120.5 734 113.2C738.2 105.9 743.8 100.2 750.9 95.7998C758 91.4998 765.9 89.2998 774.4 89.2998ZM799.1 137.6C799.1 130.3 796.7 124 791.9 118.8C787.1 113.6 781.3 111 774.5 111C767.7 111 761.9 113.6 757 118.8C752.2 124 749.8 130.2 749.8 137.6C749.8 144.9 752.2 151.1 757 156.2C761.8 161.4 767.6 163.9 774.5 163.9C781.3 163.9 787.1 161.3 791.9 156.2C796.7 151.1 799.1 144.9 799.1 137.6Z" fill="#667B97"/>
</svg>
